<svg width="128" height="23" viewBox="0 0 128 23" fill="none" xmlns="http://www.w3.org/2000/svg">
<g id="Group 584">
<g id="Group 4">
<path id="Vector 258" d="M104.883 21.1861V1.03857C104.883 0.486289 105.331 0.0385742 105.883 0.0385742H110.732C111.285 0.0385742 111.732 0.486289 111.732 1.03857V9.7693C111.732 10.7413 112.979 11.1419 113.545 10.3518L120.637 0.456055C120.825 0.194007 121.127 0.0385742 121.45 0.0385742H127C127.552 0.0385742 128 0.486289 128 1.03857V21.1861C128 21.7384 127.552 22.1861 127 22.1861H121.936C121.384 22.1861 120.936 21.7384 120.936 21.1861V12.7326C120.936 11.7455 119.658 11.3553 119.107 12.1741L112.664 21.7446C112.478 22.0206 112.167 22.1861 111.834 22.1861H105.883C105.331 22.1861 104.883 21.7384 104.883 21.1861Z" fill="url(#paint0_linear_1_270)"/>
<path id="Vector 257" d="M79.5284 0.0390625H84.0107C84.6202 0.0390625 85.1964 0.31698 85.5759 0.793948L89.516 5.74685L93.3647 0.809483C93.7437 0.323313 94.3257 0.0390625 94.9421 0.0390625H99.7953C100.635 0.0390625 101.101 1.01218 100.574 1.66639L93.3772 10.6005L101.303 20.564C101.825 21.2192 101.358 22.1866 100.521 22.1866H95.4602C94.8259 22.1866 94.2293 21.8857 93.8521 21.3757L89.4703 15.4504L84.6298 21.4433C84.2501 21.9134 83.6782 22.1866 83.0739 22.1866H78.7486C77.916 22.1866 77.448 21.2285 77.9599 20.5718L85.7154 10.6226L78.739 1.653C78.2281 0.996145 78.6962 0.0390625 79.5284 0.0390625Z" fill="url(#paint1_linear_1_270)"/>
<path id="Vector 256" d="M74.5847 1.03906V20.1866C74.5847 21.2911 73.6892 22.1866 72.5847 22.1866H69.4502C68.3456 22.1866 67.4502 21.2911 67.4502 20.1866V5.68451H66.4354C63.2207 5.68451 60.4192 7.87412 59.6427 10.9936L57.2341 20.6697C57.0123 21.561 56.2118 22.1866 55.2934 22.1866H50.7672C50.1228 22.1866 49.6466 21.5859 49.7936 20.9585L52.5245 9.30182C53.7957 3.87581 58.6352 0.0390625 64.2081 0.0390625H73.5847C74.1369 0.0390625 74.5847 0.486777 74.5847 1.03906Z" fill="url(#paint2_linear_1_270)"/>
<path id="Vector 255" d="M47.5179 2.03857V3.24975C47.5179 4.35432 46.6224 5.24975 45.5179 5.24975H34.424C33.617 5.24975 32.9628 5.90399 32.9628 6.71104C32.9628 7.51808 33.617 8.17232 34.424 8.17232H42.0931C43.1977 8.17232 44.0931 9.06775 44.0931 10.1723V11.3922C44.0931 12.4968 43.1977 13.3922 42.0931 13.3922H34.7541C33.7648 13.3922 32.9628 14.1942 32.9628 15.1836C32.9628 16.1729 33.7648 16.9749 34.7541 16.9749H45.5179C46.6224 16.9749 47.5179 17.8703 47.5179 18.9749V20.1861C47.5179 21.2906 46.6224 22.1861 45.5179 22.1861H28.1133C27.0087 22.1861 26.1133 21.2907 26.1133 20.1861V2.03857C26.1133 0.934005 27.0087 0.0385742 28.1133 0.0385742H45.5179C46.6224 0.0385742 47.5179 0.934003 47.5179 2.03857Z" fill="url(#paint3_linear_1_270)"/>
<g id="Group 3">
<path id="Subtract" fill-rule="evenodd" clip-rule="evenodd" d="M18.2642 0.0385742H2C0.895431 0.0385742 0 0.934005 0 2.03857V20.197C0 21.3015 0.895431 22.197 2 22.197H15.3059C19.2652 22.197 22.4748 18.9873 22.4748 15.0281C22.4748 11.0688 19.2652 7.85918 15.3059 7.85918H6.63543V5.03507H18.2642C19.644 5.03507 20.7625 3.91657 20.7625 2.53682C20.7625 1.15708 19.644 0.0385742 18.2642 0.0385742ZM6.84961 16.653V12.7427H13.8844C14.9642 12.7427 15.8395 13.618 15.8395 14.6978C15.8395 15.7776 14.9642 16.653 13.8844 16.653H6.84961Z" fill="url(#paint4_linear_1_270)"/>
</g>
</g>
</g>
<defs>
<linearGradient id="paint0_linear_1_270" x1="104.965" y1="9.17692" x2="127.705" y2="9.34127" gradientUnits="userSpaceOnUse">
<stop stop-color="#2980B9"/>
<stop offset="1" stop-color="#0E5C8E"/>
</linearGradient>
<linearGradient id="paint1_linear_1_270" x1="76.7936" y1="9.17741" x2="102.263" y2="9.3836" gradientUnits="userSpaceOnUse">
<stop stop-color="#2980B9"/>
<stop offset="1" stop-color="#0E5C8E"/>
</linearGradient>
<linearGradient id="paint2_linear_1_270" x1="49.5954" y1="9.17741" x2="74.2642" y2="9.37084" gradientUnits="userSpaceOnUse">
<stop stop-color="#2980B9"/>
<stop offset="1" stop-color="#0E5C8E"/>
</linearGradient>
<linearGradient id="paint3_linear_1_270" x1="26.1897" y1="9.17692" x2="47.2447" y2="9.31783" gradientUnits="userSpaceOnUse">
<stop stop-color="#2980B9"/>
<stop offset="1" stop-color="#0E5C8E"/>
</linearGradient>
<linearGradient id="paint4_linear_1_270" x1="0.0802671" y1="9.18141" x2="22.1879" y2="9.33668" gradientUnits="userSpaceOnUse">
<stop stop-color="#2980B9"/>
<stop offset="1" stop-color="#0E5C8E"/>
</linearGradient>
</defs>
</svg>
